<svg width="140" height="140" viewBox="0 0 140 140" fill="none" xmlns="http://www.w3.org/2000/svg">
<g clip-path="url(#clip0_107_42)">
<path d="M69.9986 43.5908C79.9717 43.5908 88.0852 35.4771 88.0852 25.5043C88.0852 15.5315 79.9714 7.41779 69.9986 7.41779C60.0255 7.41779 51.9121 15.5315 51.9121 25.5043C51.9121 35.4771 60.0255 43.5908 69.9986 43.5908Z" fill="#526EFF"/>
<path d="M40.8318 87.1543H99.1672C101.578 87.1543 103.533 85.1995 103.533 82.7884C103.533 64.2977 88.49 49.2548 69.9996 49.2548C51.5093 49.2548 36.4658 64.2977 36.4658 82.7884C36.4658 85.1995 38.4206 87.1543 40.8318 87.1543Z" fill="#526EFF"/>
<path d="M87.6199 103.913L78.1502 102.537L73.9152 93.9561C72.3161 90.7156 67.6833 90.7178 66.085 93.9561L61.85 102.537L52.3804 103.913C48.8046 104.433 47.3748 108.839 49.9607 111.36L56.8128 118.039L55.1951 127.471C54.5843 131.032 58.3334 133.753 61.5298 132.073L69.9998 127.62L78.4698 132.073C81.6404 133.74 85.4201 131.059 84.8046 127.471L83.1869 118.039L90.039 111.36C92.6268 108.837 91.1934 104.432 87.6199 103.913Z" fill="#526EFF"/>
<path d="M38.9784 103.913L29.5087 102.537L25.2737 93.9561C23.6746 90.7161 19.0418 90.7178 17.4435 93.9561L13.2088 102.537L3.73912 103.913C0.163377 104.433 -1.26615 108.839 1.31947 111.36L8.17154 118.039L6.55388 127.471C5.94303 131.032 9.69213 133.753 12.8886 132.073L21.3586 127.62L29.8286 132.073C32.9991 133.74 36.7788 131.059 36.1633 127.471L34.5457 118.039L41.398 111.36C43.9856 108.837 42.5519 104.432 38.9784 103.913Z" fill="#526EFF"/>
<path d="M136.261 103.913L126.791 102.537L122.556 93.9561C121.245 91.298 118.35 91.5223 118.641 91.5223C116.979 91.5223 115.462 92.4659 114.726 93.9561L110.491 102.537L101.021 103.913C97.4456 104.433 96.0161 108.839 98.6017 111.36L105.454 118.039L103.837 127.471C103.226 131.032 106.975 133.753 110.171 132.073L118.641 127.62L127.111 132.073C130.282 133.74 134.062 131.059 133.446 127.471L131.828 118.039L138.681 111.36C141.268 108.838 139.835 104.432 136.261 103.913Z" fill="#526EFF"/>
</g>
<defs>
<clipPath id="clip0_107_42">
<rect width="140" height="140" fill="white"/>
</clipPath>
</defs>
</svg>
