<svg width="140" height="140" viewBox="0 0 140 140" fill="none" xmlns="http://www.w3.org/2000/svg">
<g clip-path="url(#clip0_107_38)">
<path d="M138.499 85.0569L69.4172 15.975C68.8638 15.421 68.1906 15.0018 67.4499 14.7492L38.322 4.81056C36.4741 4.18029 34.4277 4.65525 33.0463 6.03638L23.1624 15.92L8.74349 1.50143C6.74357 -0.498766 3.50006 -0.498766 1.50014 1.50143C-0.500048 3.50162 -0.500048 6.74458 1.50014 8.74477L15.919 23.1634L6.03701 33.0457C4.65588 34.4265 4.18037 36.4729 4.81119 38.3214L14.7498 67.4487C15.0025 68.1897 15.4219 68.8629 15.9756 69.4166L85.0581 138.499C87.058 140.499 90.3013 140.499 92.3014 138.499L138.5 92.3003C140.5 90.3001 140.5 87.0574 138.499 85.0569ZM62.1359 62.1353C56.1703 68.1014 46.5139 68.1016 40.5475 62.1353C34.5953 56.1831 34.5953 46.4988 40.5478 40.5466C46.5133 34.5805 56.1698 34.5802 62.1364 40.5466C68.0881 46.4988 68.0881 56.1831 62.1359 62.1353Z" fill="#526EFF"/>
</g>
<defs>
<clipPath id="clip0_107_38">
<rect width="140" height="140" fill="white"/>
</clipPath>
</defs>
</svg>
