<svg width="133" height="22" viewBox="0 0 133 22" fill="none" xmlns="http://www.w3.org/2000/svg">
<path d="M61.7967 0.774791V21.6423H57.2122V19.1084C55.8106 21.0361 53.7472 22 51.0216 22C48.6077 22 46.7194 21.2249 45.3567 19.6748C44.0135 18.1047 43.3419 15.8789 43.3419 12.9972V0.774791H48.0723V12.8481C48.0723 14.5175 48.452 15.7795 49.2111 16.6341C49.9898 17.4688 51.041 17.8861 52.3649 17.8861C53.786 17.8861 54.9248 17.439 55.7814 16.5446C56.6379 15.6304 57.066 14.2889 57.066 12.5202V0.774791H61.7967Z" fill="black"/>
<path d="M76.9793 0C78.7844 0 80.3666 0.369876 81.7253 1.10962C83.1035 1.84938 84.1712 2.93901 84.928 4.37852C85.6854 5.79804 86.0638 7.51743 86.0638 9.53679V21.3528H81.3177V9.11691C81.3177 7.47745 80.9291 6.23789 80.1528 5.39818C79.3766 4.55846 78.3186 4.1386 76.9793 4.1386C75.62 4.1386 74.5431 4.55846 73.7469 5.39818C72.9706 6.23789 72.5825 7.25724 72.5825 9.11691C72.5825 12.1759 76.1606 18.9076 72.1744 21.3528C69.8006 22.809 65.5067 21.3528 65.5067 21.3528L66.3029 17.5037C66.3029 17.5037 68.287 18.112 68.9717 17.9036C71.2427 17.2122 68.287 11.5561 68.287 9.53679C68.287 7.51743 68.2144 5.79804 68.9717 4.37852C69.7285 2.93901 70.7963 1.84938 72.1744 1.10962C73.5531 0.369876 75.1542 0 76.9793 0Z" fill="black"/>
<path d="M11.0669 22C8.98397 22 7.09568 21.5429 5.40207 20.6287C3.72792 19.6946 2.40417 18.4128 1.43082 16.7831C0.476941 15.1336 0 13.2754 0 11.2085C0 9.14168 0.476941 7.29342 1.43082 5.66375C2.40417 4.01422 3.72792 2.73236 5.40207 1.81816C7.09568 0.884098 8.99374 0.417062 11.0961 0.417062C12.8676 0.417062 14.4639 0.73504 15.885 1.371C17.3256 2.00696 18.5326 2.92116 19.5059 4.11359L16.469 6.97541C15.0869 5.34574 13.3738 4.53094 11.3298 4.53094C10.0644 4.53094 8.93534 4.81911 7.94252 5.39542C6.94969 5.95189 6.17102 6.7369 5.60647 7.75046C5.0614 8.76403 4.78887 9.91674 4.78887 11.2085C4.78887 12.5003 5.0614 13.653 5.60647 14.6665C6.17102 15.6801 6.94969 16.4751 7.94252 17.0514C8.93534 17.6079 10.0644 17.8861 11.3298 17.8861C13.3738 17.8861 15.0869 17.0614 16.469 15.4118L19.5059 18.2737C18.5326 19.486 17.3256 20.4101 15.885 21.0461C14.4445 21.682 12.8384 22 11.0669 22Z" fill="black"/>
<path d="M30.7305 13.2357H27.46V21.6423H22.7588V0.774791H27.46V9.21122H30.8473L36.2202 0.774791H41.2135L34.5265 10.8508L41.4178 21.6423H36.045L30.7305 13.2357Z" fill="black"/>
<path d="M99.2019 13.2357H95.9317V21.6423H91.2302V0.774791H95.9317V9.21122H99.3185L104.691 0.774791H109.685L102.998 10.8508L109.889 21.6423H104.517L99.2019 13.2357Z" fill="black"/>
<path d="M121.773 22C119.651 22 117.734 21.5329 116.02 20.5989C114.327 19.6648 112.993 18.383 112.02 16.7533C111.066 15.1038 110.589 13.2555 110.589 11.2085C110.589 9.16154 111.066 7.32318 112.02 5.69357C112.993 4.04403 114.327 2.75223 116.02 1.81816C117.734 0.884098 119.651 0.417062 121.773 0.417062C123.895 0.417062 125.802 0.884098 127.496 1.81816C129.19 2.75223 130.523 4.04403 131.497 5.69357C132.47 7.32318 132.957 9.16154 132.957 11.2085C132.957 13.2555 132.47 15.1038 131.497 16.7533C130.523 18.383 129.19 19.6648 127.496 20.5989C125.802 21.5329 123.895 22 121.773 22ZM121.773 17.8861C122.98 17.8861 124.07 17.6079 125.043 17.0514C126.017 16.4751 126.776 15.6801 127.321 14.6665C127.885 13.653 128.168 12.5003 128.168 11.2085C128.168 9.91674 127.885 8.76403 127.321 7.75046C126.776 6.7369 126.017 5.95189 125.043 5.39542C124.07 4.81911 122.98 4.53094 121.773 4.53094C120.566 4.53094 119.476 4.81911 118.502 5.39542C117.529 5.95189 116.76 6.7369 116.195 7.75046C115.65 8.76403 115.378 9.91674 115.378 11.2085C115.378 12.5003 115.65 13.653 116.195 14.6665C116.76 15.6801 117.529 16.4751 118.502 17.0514C119.476 17.6079 120.566 17.8861 121.773 17.8861Z" fill="black"/>
</svg>
