<svg width="37" height="26" viewBox="0 0 37 26" fill="none" xmlns="http://www.w3.org/2000/svg">
<path d="M0 2.18461C0 1.08429 0.891987 0.192307 1.99231 0.192307H35.0077C36.108 0.192307 37 1.08429 37 2.18461C37 3.28494 36.108 4.17692 35.0077 4.17692H1.99231C0.891988 4.17692 0 3.28494 0 2.18461Z" fill="black"/>
<path d="M0 13C0 11.8997 0.891987 11.0077 1.99231 11.0077H35.0077C36.108 11.0077 37 11.8997 37 13C37 14.1003 36.108 14.9923 35.0077 14.9923H1.99231C0.891988 14.9923 0 14.1003 0 13Z" fill="black"/>
<path d="M0 23.8154C0 22.7151 0.891987 21.8231 1.99231 21.8231H35.0077C36.108 21.8231 37 22.7151 37 23.8154C37 24.9157 36.108 25.8077 35.0077 25.8077H1.99231C0.891988 25.8077 0 24.9157 0 23.8154Z" fill="black"/>
</svg>
