<svg width="140" height="140" viewBox="0 0 140 140" fill="none" xmlns="http://www.w3.org/2000/svg">
<path d="M139.348 110.669L115.965 70.1673C115.336 69.0771 113.762 69.1153 113.168 70.2255C106.388 82.9171 94.5253 91.7639 80.8753 94.8499C79.8294 95.0864 79.3167 96.2736 79.8527 97.2022L100.559 133.067C102.603 136.608 107.844 136.116 109.217 132.29L115.639 114.396L134.347 117.778C138.352 118.502 141.384 114.196 139.348 110.669Z" fill="#526EFF"/>
<path d="M59.1244 94.8501C45.4698 91.7627 33.6084 82.9113 26.8312 70.2258C26.2381 69.1153 24.6637 69.0773 24.0342 70.1672L0.651277 110.669C-1.38337 114.193 1.6444 118.502 5.65217 117.778L24.3599 114.396L30.7824 132.29C32.1553 136.114 37.3952 136.609 39.4397 133.067L60.1462 97.2022C60.6827 96.2734 60.1703 95.0864 59.1244 94.8501Z" fill="#526EFF"/>
<path d="M109.599 62.7702C114.788 49.6646 113.144 34.8643 105.203 23.1793C88.3103 -1.67808 51.6862 -1.67124 34.7993 23.1768C26.8565 34.8643 25.2117 49.6652 30.4002 62.7702C44.6102 98.6536 95.4563 98.4857 109.599 62.7702ZM93.4034 46.0285L85.1767 54.047L87.1187 65.3698C87.7941 69.3081 83.6455 72.2492 80.1679 70.4199L69.9996 65.0742L59.831 70.4201C56.3242 72.2639 52.2101 69.278 52.8803 65.37L54.8222 54.0473L46.5956 46.0287C43.7584 43.2627 45.3271 38.4277 49.2504 37.8579L60.6191 36.2058L65.7031 25.9041C67.4566 22.3505 72.5401 22.3486 74.2948 25.9041L79.3788 36.2058L90.7475 37.8579C94.6694 38.4272 96.2422 43.261 93.4034 46.0285Z" fill="#526EFF"/>
</svg>
